<svg xmlns="http://www.w3.org/2000/svg" viewBox="0 0 427.19 301.58"><defs><style>.cls-1{fill:#0d5ca1;}.cls-2{fill:#00c0ed;}</style></defs><g id="Layer_2" data-name="Layer 2"><g id="Layer_1-2" data-name="Layer 1"><path class="cls-1" d="M31.69,189.26l8.93,32.08,8.87-32.08h9.42l9,32.08,8.87-32.08h9.85l-14.1,42.53h-9.9l-8.57-30.32L45.3,231.79H35.4l-14-42.53Z"></path><path class="cls-1" d="M128.06,189.26v8H105.28v9.23h20.47v8H105.28v9.42h23.45v8h-33V189.26Z"></path><path class="cls-1" d="M150.73,189.26v34.15H169v8.38H141.13V189.26Z"></path><path class="cls-1" d="M189.14,189.26v34.15h18.23v8.38H179.54V189.26Z"></path><path class="cls-1" d="M252.7,199.89a9.43,9.43,0,0,1-7.35,9.36A10.39,10.39,0,0,1,254.22,220c0,7.29-6.2,11.79-16,11.79H217.94V189.26h19.57C246.86,189.26,252.7,193.33,252.7,199.89Zm-9.85,1.76c0-2.91-2.18-4.61-5.83-4.55h-9.48v9.29H237C240.67,206.39,242.85,204.63,242.85,201.65Zm1.46,17.14c0-3.1-2.79-5-7.29-4.92h-9.48V224H237C241.52,224,244.31,222.07,244.31,218.79Z"></path><path class="cls-1" d="M298.45,189.26v8H275.67v9.23h20.48v8H275.67v9.42h23.45v8H266.07V189.26Z"></path><path class="cls-1" d="M321.12,189.26v42.53h-9.6V189.26Z"></path><path class="cls-1" d="M344.15,189.26l20.66,27.34V189.26h9.12v42.53h-8.75l-20.6-27.28v27.28h-9.17V189.26Z"></path><path class="cls-1" d="M416.71,210.34H425v16.35a31.46,31.46,0,0,1-17.25,5.53c-12.88,0-22.67-9.36-22.67-21.7s10-21.57,23.21-21.57a26.88,26.88,0,0,1,17.08,6.2L420,202a17.78,17.78,0,0,0-11.67-4.74,13.28,13.28,0,1,0,.06,26.55,19.35,19.35,0,0,0,8.33-2.31Z"></path><path class="cls-1" d="M42.65,286.09c2.68,0,5.23-4.13,5.23-10.09,0-11.66-7.84-20.78-20.72-20.78a21.17,21.17,0,0,0-21.45,21c0,11.48,9,19.92,20.66,19.92a20.67,20.67,0,0,0,11.54-3.64l2.74,4.68c-3.59,2.67-9.6,4.37-14.28,4.37-15,0-26.37-10.81-26.37-25.33,0-14.83,12-26.31,27.16-26.31s26.37,10.93,26.37,25.88c0,9.11-4.8,15-11.61,15-3.7,0-6.31-1.46-7.1-4.74l-.13-.91a11.25,11.25,0,0,1-9.6,5,13.68,13.68,0,0,1-13.49-14.1c0-7.84,5-14.34,12.76-14.34a11.13,11.13,0,0,1,8.69,4.07v-3.4h7.11v20.66C40.16,285.3,41.2,286.09,42.65,286.09ZM19.38,275.76c0,4.25,2.55,7.9,6.5,7.9,4.2,0,6.69-3.53,6.69-7.84,0-4.13-2.61-7.47-6.81-7.47C21.93,268.35,19.38,271.69,19.38,275.76Z"></path><path class="cls-1" d="M95.34,249.94l-.06,8H74.38v10.45h19.2v8H74.38v16.1h-9.6V249.94Z"></path><path class="cls-1" d="M115.4,249.94v42.53h-9.6V249.94Z"></path><path class="cls-1" d="M138.43,249.94l20.66,27.34V249.94h9.11v42.53h-8.75l-20.6-27.28v27.28h-9.17V249.94Z"></path><path class="cls-1" d="M211,271h8.33v16.34a31.52,31.52,0,0,1-17.26,5.53c-12.88,0-22.66-9.35-22.66-21.69s10-21.57,23.21-21.57a26.77,26.77,0,0,1,17.07,6.2l-5.41,6.87A17.77,17.77,0,0,0,202.6,258a13.28,13.28,0,1,0,.06,26.55A19.31,19.31,0,0,0,211,282.2Z"></path><path class="cls-1" d="M264.94,249.94v8H242.16v9.23h20.47v8H242.16v9.42h23.45v8H232.56V249.94Z"></path><path class="cls-1" d="M304.14,292.47l-6.75-12.15h-9.78v12.15H278V249.94h18.47c11.12,0,17.44,5.34,17.44,14.76,0,6.56-2.8,11.3-8,13.73l9.05,14ZM287.61,272.3h8.87c5.29,0,8.33-2.43,8.33-7.3s-3-7.1-8.33-7.1h-8.87Z"></path><path class="cls-1" d="M358.22,249.94v8.14h-13v34.39h-9.6V258.08H322.68v-8.14Z"></path><path class="cls-1" d="M377.85,249.94v42.53h-9.6V249.94Z"></path><path class="cls-1" d="M427.19,264.7c0,9.9-6.2,15.62-17,15.62h-8.45v12.15h-9.6V249.94h18.05C421,249.94,427.19,255.28,427.19,264.7Zm-9.11.3c0-4.74-3-7.1-8.39-7.1h-8v14.4h8C415,272.3,418.08,269.87,418.08,265Z"></path><path class="cls-2" d="M219.93,19.89C235.38,7,258.63,6.08,274.54,18.41a43.15,43.15,0,0,1,16,24.84h8.9c-.05-.49-.08-1-.14-1.47A46.83,46.83,0,0,0,291,20.46c-17.36-25-55-27.83-74.75-4.27-3.41,4-6,9-8.71,13.48-.86,1.53-1.75,3-2.58,4.61,1.32-1.19,2.57-2.42,3.85-3.63C212.42,27.26,216.22,22.85,219.93,19.89Z"></path><path class="cls-2" d="M290.41,65.23a92.13,92.13,0,0,1-8.08,21.24A60,60,0,0,0,296.4,65.23Z"></path><path class="cls-1" d="M161,3.25c-16,4.31-28.89,17.59-33.39,33.47a45,45,0,0,0-1.51,6.68h11.51C141.35,20.18,164.82,3.18,190.82,9a52,52,0,0,1,13.6,5.22C193.86,3,176-1.16,161,3.25Z"></path><path class="cls-1" d="M210,133.77C184.49,117.17,151.27,94.71,140,65.6H127.56a73.13,73.13,0,0,0,10.09,21.57c10.81,15.9,25.73,28.82,41.42,39.72a276,276,0,0,0,25.51,16c3.93,2.16,9,4.91,12.9,7.15l5.06-8.23C219.49,139.76,213.17,135.67,210,133.77Z"></path><rect class="cls-2" x="253.9" y="49.43" width="56.84" height="9.83"></rect><path class="cls-2" d="M162.17,85.74a4.91,4.91,0,0,1-4.68-3.41l-8.14-22.69h-32.9V49.81h36.49a4.93,4.93,0,0,1,4.68,3.41l4.46,11.28,13.86-42.08A4.9,4.9,0,0,1,180.63,19h0a4.92,4.92,0,0,1,4.69,3.49l8.17,27h28v9.83H189.86a4.91,4.91,0,0,1-4.7-3.49l-4.58-15.12L166.86,82.28a4.9,4.9,0,0,1-4.67,3.46Z"></path><path class="cls-1" d="M275.74,96.85c-6.61,6.59-57.59,52.16-57.59,52.16l-4.69-3.12c-8.37-4.79-15.91-9.47-22.7-14-.06-11.49,0-29.46,0-39a14.19,14.19,0,0,1,.36-3c.95-4.21,4.87-8.42,10.65-4.87.85-2.7,2.27-4.91,5.1-5.52s5.61-.33,7.53,1.62a7.88,7.88,0,0,1,6-4.81,9.74,9.74,0,0,1,8.94,4V78.17c0-10.54.2-18.71,0-29.24-.27-13.85,15.41-14.73,15.87-.88.51,15.49,1.34,48.77,1.34,52.28.2,0,8.1-7.65,13.29-9C270.79,88.46,275.75,96.83,275.74,96.85Z"></path></g></g></svg>